<?xml version="1.0" encoding="utf-8"?>
<!-- Generator: Adobe Illustrator 18.1.1, SVG Export Plug-In . SVG Version: 6.00 Build 0)  -->
<!DOCTYPE svg PUBLIC "-//W3C//DTD SVG 1.1//EN" "http://www.w3.org/Graphics/SVG/1.1/DTD/svg11.dtd">
<svg version="1.1" id="Layer_1" xmlns="http://www.w3.org/2000/svg" xmlns:xlink="http://www.w3.org/1999/xlink" x="0px" y="0px"
	 viewBox="0 0 50.7 50.7" enable-background="new 0 0 50.7 50.7" xml:space="preserve">
<g>
	<path fill="#0F2546" d="M25.3,0.8c-13.5,0-24.5,11-24.5,24.5c0,13.5,11,24.5,24.5,24.5s24.5-11,24.5-24.5
		C49.8,11.8,38.9,0.8,25.3,0.8z M34.3,33.8c0,0.6-0.5,1.1-1.1,1.1H16.9c-0.6,0-1.1-0.5-1.1-1.1v-9.2c0-0.6,0.5-1.1,1.1-1.1h1.8v-5
		c0-3.5,2.9-6.4,6.4-6.4s6.4,2.9,6.4,6.4v5h1.8c0.6,0,1.1,0.5,1.1,1.1V33.8z"/>
	<path fill="#0F2546" d="M25.1,14.2c-2.4,0-4.3,1.9-4.3,4.3v5h8.5v-5C29.4,16.1,27.4,14.2,25.1,14.2z"/>
	<path fill="#0F2546" d="M25.1,25.6c-1.2,0-2.1,1-2.1,2.1c0,0.8,0.4,1.5,1.1,1.8v2.1c0,0.6,0.5,1.1,1.1,1.1s1.1-0.5,1.1-1.1v-2.1
		c0.6-0.4,1.1-1.1,1.1-1.8C27.2,26.5,26.3,25.6,25.1,25.6z"/>
</g>
</svg>
